<?xml version="1.0" encoding="utf-8"?>
<!-- Generator: Adobe Illustrator 23.0.2, SVG Export Plug-In . SVG Version: 6.00 Build 0)  -->
<svg version="1.1" xmlns="http://www.w3.org/2000/svg" xmlns:xlink="http://www.w3.org/1999/xlink" x="0px" y="0px"
	 viewBox="0 0 190 190" style="enable-background:new 0 0 190 190;" xml:space="preserve">
<style type="text/css">
	.st0{fill:#DABF98;}
	.st1{fill:#FFFFFF;stroke:#000000;stroke-width:5;stroke-miterlimit:10;}
	.st2{stroke:#FFFFFF;stroke-width:13;stroke-miterlimit:10;}
	.st3{fill:#FFFFFF;}
	.st4{stroke:#FFFFFF;stroke-miterlimit:10;}
	.st5{fill:#DABF98;stroke:#000000;stroke-width:5;stroke-miterlimit:10;}
	.st6{fill:#DABF98;stroke:#FFFFFF;stroke-width:13;stroke-miterlimit:10;}
</style>
<g id="Layer_1">
</g>
<g id="stars_1_">
	<polygon id="stars" class="st0" points="87.1,47.7 94.6,0 101.9,47.7 123.7,4.7 115.9,52.3 150,18.1 127.8,61 170.8,39 136.5,73 
		184.1,65.3 141,87 188.7,94.4 141,101.7 184.1,123.6 136.4,115.8 170.6,149.8 127.7,127.7 149.7,170.7 115.8,136.3 123.4,184 
		101.7,140.9 94.3,188.6 87,140.9 65.1,183.9 72.9,136.3 38.9,170.5 61,127.6 18,149.6 52.4,115.6 4.7,123.3 47.8,101.6 0.1,94.2 
		47.9,86.9 4.8,65 52.4,72.8 18.2,38.8 61.1,60.9 39.1,17.9 73.1,52.3 65.4,4.6 	"/>
	<polygon id="stars_2_" class="st0" points="-616.5,-61.3 -591.5,-221.2 -567.1,-61.2 -493.9,-205.6 -520.1,-45.9 -405.9,-160.6 
		-480.1,-16.8 -336.2,-90.6 -451.2,23.2 -291.4,-2.4 -436,70.2 -276.1,95.2 -436,119.7 -291.7,192.8 -451.4,166.6 -336.7,280.8 
		-480.5,206.6 -406.7,350.6 -520.5,235.6 -494.9,395.3 -567.5,250.8 -592.5,410.6 -616.9,250.7 -690.1,395 -663.9,235.3 -778.1,350 
		-703.9,206.2 -847.8,280 -732.8,166.2 -892.6,191.9 -748,119.2 -907.9,94.2 -748,69.8 -892.3,-3.4 -732.6,22.8 -847.3,-91.4 
		-703.5,-17.1 -777.3,-161.1 -663.5,-46.1 -689.1,-205.9 	"/>
</g>
<g id="outerCircle">
	<circle id="outerCircle_3_" class="st1" cx="94.9" cy="93.8" r="66.3"/>
	<circle id="outerCircle_1_" class="st2" cx="-591.5" cy="94.2" r="224.5"/>
</g>
<g id="thirdCircle_1_">
	<circle id="thirdCircle" class="st0" cx="94.6" cy="94.2" r="56.9"/>
	<g id="ornaments">
		<polygon class="st3" points="98.9,43.8 98.9,57.9 89.9,57.9 89.9,43.8 94.4,38.5 		"/>
		<polygon class="st3" points="145.2,98.8 131.1,98.8 131.1,89.8 145.2,89.8 150.5,94.3 		"/>
		<polygon class="st3" points="90.2,144.8 90.2,130.7 99.2,130.7 99.2,144.8 94.7,150.1 		"/>
		<polygon class="st3" points="43.4,89.8 57.4,89.8 57.4,98.8 43.4,98.8 38,94.3 		"/>
		<polygon class="st3" points="111.6,46.6 108.1,60.2 99.4,57.9 102.9,44.4 108.6,40.3 		"/>
		<polygon class="st3" points="142.8,111.3 129.2,107.8 131.4,99.1 145,102.6 149.1,108.3 		"/>
		<polygon class="st3" points="78.1,142.2 81.6,128.6 90.3,130.8 86.8,144.4 81.1,148.5 		"/>
		<polygon class="st3" points="46.4,77.3 60,80.8 57.7,89.5 44.1,86 40.1,80.3 		"/>
		<polygon class="st3" points="123,52.2 116.3,64.5 108.5,60.2 115.2,47.9 121.7,45.3 		"/>
		<polygon class="st3" points="137.5,122.5 125.1,115.8 129.4,108 141.7,114.7 144.3,121.2 		"/>
		<polygon class="st3" points="67.2,136.7 73.9,124.4 81.8,128.7 75.1,141 68.6,143.6 		"/>
		<polygon class="st3" points="52.3,66.1 64.6,72.8 60.3,80.6 48,73.9 45.4,67.4 		"/>
		<polygon class="st3" points="133.2,61.9 123.3,71.8 117,65.5 126.9,55.6 133.8,54.9 		"/>
		<polygon class="st3" points="127.1,133.5 117.2,123.5 123.5,117.2 133.4,127.1 134.1,134.1 		"/>
		<polygon class="st3" points="55.7,127.1 65.7,117.2 72,123.5 62.1,133.5 55.1,134.1 		"/>
		<polygon class="st3" points="61.4,55.1 71.4,65.1 65,71.4 55.1,61.5 54.5,54.5 		"/>
		<polygon class="st3" points="144.3,86.4 130.7,89.9 128.5,81.2 142.1,77.7 148.4,80.8 		"/>
		<polygon class="st3" points="102.4,144.7 99,131.1 107.6,128.9 111.1,142.5 108.1,148.9 		"/>
		<polygon class="st3" points="44.4,102.8 58,99.3 60.2,108 46.6,111.4 40.3,108.4 		"/>
		<polygon class="st3" points="86.1,43.9 89.6,57.5 80.9,59.6 77.4,46 80.5,39.7 		"/>
		<polygon class="st3" points="140.5,73.1 128.4,80.1 123.9,72.3 136.1,65.3 143,66.5 		"/>
		<polygon class="st3" points="116.2,140.6 109.2,128.5 116.9,124 123.9,136.1 122.7,143 		"/>
		<polygon class="st3" points="48.9,116.1 61,109.1 65.5,116.8 53.4,123.8 46.5,122.7 		"/>
		<polygon class="st3" points="72.9,48 80,60.2 72.2,64.6 65.2,52.5 66.4,45.6 		"/>
	</g>
	<circle id="thirdCircle_2_" class="st0" cx="-591.5" cy="94.2" r="190.5"/>
	<g id="ornaments_1_">
		<polygon class="st3" points="-577,-74.3 -577,-27.3 -607,-27.3 -607,-74.3 -592,-92.3 		"/>
		<polygon class="st3" points="-422,109.7 -469,109.7 -469,79.7 -422,79.7 -404,94.7 		"/>
		<polygon class="st3" points="-606,263.7 -606,216.7 -576,216.7 -576,263.7 -591,281.7 		"/>
		<polygon class="st3" points="-763,79.7 -716,79.7 -716,109.7 -763,109.7 -781,94.7 		"/>
		<polygon class="st3" points="-534.5,-65.1 -546.2,-19.6 -575.2,-27.1 -563.6,-72.6 -544.6,-86.3 		"/>
		<polygon class="st3" points="-430.1,151.6 -475.6,139.9 -468.1,110.9 -422.6,122.5 -408.9,141.5 		"/>
		<polygon class="st3" points="-646.5,255.1 -634.9,209.5 -605.8,217 -617.5,262.5 -636.5,276.2 		"/>
		<polygon class="st3" points="-752.9,37.8 -707.4,49.5 -714.9,78.6 -760.4,66.9 -774.1,47.9 		"/>
		<polygon class="st3" points="-496.1,-46.4 -518.6,-5.1 -544.9,-19.4 -522.5,-60.7 -500.7,-69.3 		"/>
		<polygon class="st3" points="-447.8,189.3 -489.1,166.9 -474.8,140.5 -433.5,163 -424.8,184.8 		"/>
		<polygon class="st3" points="-683,236.7 -660.6,195.5 -634.2,209.8 -656.7,251.1 -678.4,259.7 		"/>
		<polygon class="st3" points="-733.1,0.1 -691.8,22.6 -706.1,48.9 -747.4,26.5 -756,4.7 		"/>
		<polygon class="st3" points="-462,-13.8 -495.3,19.4 -516.5,-1.8 -483.3,-35 -459.9,-37.2 		"/>
		<polygon class="st3" points="-482.5,225.9 -515.8,192.6 -494.6,171.4 -461.3,204.7 -459.2,228 		"/>
		<polygon class="st3" points="-721.5,204.7 -688.3,171.4 -667.1,192.6 -700.3,225.9 -723.7,228 		"/>
		<polygon class="st3" points="-702.5,-36.5 -669.2,-3.2 -690.4,18 -723.7,-15.2 -725.8,-38.6 		"/>
		<polygon class="st3" points="-424.9,68.3 -470.4,79.8 -477.8,50.7 -432.2,39.2 -411.1,49.3 		"/>
		<polygon class="st3" points="-565.3,263.7 -576.8,218.1 -547.7,210.7 -536.2,256.3 -546.3,277.4 		"/>
		<polygon class="st3" points="-759.7,123 -714.1,111.5 -706.7,140.6 -752.3,152.1 -773.4,142 		"/>
		<polygon class="st3" points="-619.7,-74.3 -608.2,-28.7 -637.3,-21.4 -648.8,-66.9 -638.7,-88.1 		"/>
		<polygon class="st3" points="-437.4,23.5 -478.1,47.1 -493.2,21.1 -452.5,-2.4 -429.4,1.5 		"/>
		<polygon class="st3" points="-519.1,249.8 -542.6,209.2 -516.7,194.1 -493.1,234.8 -497.1,257.9 		"/>
		<polygon class="st3" points="-744.5,167.7 -703.8,144.2 -688.8,170.1 -729.5,193.7 -752.6,189.7 		"/>
		<polygon class="st3" points="-663.9,-60.3 -640.4,-19.6 -666.3,-4.6 -689.9,-45.3 -685.9,-68.4 		"/>
	</g>
</g>
<g id="secondCircle_1_">
	<circle id="secondCircle_4_" class="st4" cx="94.5" cy="94.2" r="37.2"/>
	<circle id="secondCircle_3_" cx="-591.5" cy="94.2" r="121.5"/>
</g>
<g id="innerCircle_1_">
	<circle id="innerCircle" class="st5" cx="94.4" cy="94.3" r="26.6"/>
	<circle id="innerCircle_2_" class="st6" cx="-592" cy="94.7" r="89"/>
</g>
</svg>
