<svg xmlns="http://www.w3.org/2000/svg" viewBox="0 0 631.78 631.78"><defs><style>.cls-1,.cls-4{fill:#dabf98;}.cls-2,.cls-4{stroke:#fff;stroke-miterlimit:10;stroke-width:13px;}.cls-3{fill:#fff;}</style></defs><title>circleLeftAbove</title><g id="stars"><polygon id="stars-2" data-name="stars" class="cls-1" points="291.42 159.85 316.38 0 340.84 159.93 413.97 15.61 387.81 175.27 501.96 60.62 427.75 204.38 571.74 130.61 456.73 244.4 616.47 218.74 471.93 291.42 631.78 316.38 471.85 340.84 616.17 413.97 456.51 387.81 571.16 501.96 427.4 427.75 501.17 571.74 387.38 456.73 413.04 616.47 340.36 471.93 315.4 631.78 290.94 471.85 217.81 616.17 243.97 456.51 129.82 571.16 204.03 427.4 60.04 501.17 175.05 387.38 15.31 413.04 159.85 340.36 0 315.4 159.93 290.94 15.61 217.81 175.27 243.97 60.62 129.82 204.38 204.03 130.61 60.04 244.4 175.05 218.74 15.31 291.42 159.85"/></g><g id="outerCircle"><circle id="outerCircle-2" data-name="outerCircle" class="cls-2" cx="316.39" cy="315.39" r="224.5"/></g><g id="thirdCircle"><circle id="thirdCircle-2" data-name="thirdCircle" class="cls-1" cx="316.39" cy="315.39" r="190.5"/><g id="ornaments"><polygon class="cls-3" points="330.89 146.89 330.89 193.89 300.89 193.89 300.89 146.89 315.89 128.89 330.89 146.89"/><polygon class="cls-3" points="485.89 330.89 438.89 330.89 438.89 300.89 485.89 300.89 503.89 315.89 485.89 330.89"/><polygon class="cls-3" points="301.89 484.89 301.89 437.89 331.89 437.89 331.89 484.89 316.89 502.89 301.89 484.89"/><polygon class="cls-3" points="144.89 300.89 191.89 300.89 191.89 330.89 144.89 330.89 126.89 315.89 144.89 300.89"/><polygon class="cls-3" points="373.37 156.03 361.7 201.56 332.64 194.11 344.31 148.58 363.31 134.87 373.37 156.03"/><polygon class="cls-3" points="477.82 372.76 432.3 361.09 439.75 332.03 485.27 343.7 498.98 362.7 477.82 372.76"/><polygon class="cls-3" points="261.34 476.24 273.01 430.71 302.07 438.16 290.4 483.69 271.4 497.4 261.34 476.24"/><polygon class="cls-3" points="154.96 259.02 200.48 270.69 193.03 299.75 147.5 288.08 133.79 269.08 154.96 259.02"/><polygon class="cls-3" points="411.79 174.82 389.34 216.12 362.98 201.79 385.43 160.49 407.2 151.84 411.79 174.82"/><polygon class="cls-3" points="460.08 410.51 418.79 388.06 433.12 361.7 474.41 384.15 483.06 405.93 460.08 410.51"/><polygon class="cls-3" points="224.87 457.93 247.32 416.63 273.68 430.96 251.23 472.25 229.45 480.9 224.87 457.93"/><polygon class="cls-3" points="174.82 221.28 216.11 243.73 201.78 270.09 160.49 247.64 151.84 225.86 174.82 221.28"/><polygon class="cls-3" points="445.85 207.35 412.62 240.58 391.4 219.37 424.64 186.13 447.97 184.01 445.85 207.35"/><polygon class="cls-3" points="425.34 447.06 392.11 413.82 413.32 392.61 446.56 425.84 448.68 449.18 425.34 447.06"/><polygon class="cls-3" points="186.34 425.84 219.58 392.61 240.79 413.82 207.56 447.06 184.22 449.18 186.34 425.84"/><polygon class="cls-3" points="205.43 184.72 238.67 217.95 217.45 239.17 184.22 205.93 182.1 182.6 205.43 184.72"/><polygon class="cls-3" points="483.03 289.48 437.47 301 430.12 271.91 475.68 260.39 496.81 270.52 483.03 289.48"/><polygon class="cls-3" points="342.63 484.85 331.12 439.28 360.2 431.93 371.72 477.49 361.59 498.62 342.63 484.85"/><polygon class="cls-3" points="148.24 344.2 193.8 332.68 201.15 361.76 155.59 373.28 134.46 363.15 148.24 344.2"/><polygon class="cls-3" points="288.14 146.89 299.66 192.46 270.58 199.81 259.06 154.25 269.19 133.12 288.14 146.89"/><polygon class="cls-3" points="470.44 244.71 429.76 268.25 414.73 242.28 455.41 218.75 478.51 222.71 470.44 244.71"/><polygon class="cls-3" points="388.81 471.02 365.27 430.34 391.23 415.32 414.77 456 410.8 479.09 388.81 471.02"/><polygon class="cls-3" points="163.36 388.89 204.04 365.35 219.06 391.32 178.38 414.86 155.29 410.89 163.36 388.89"/><polygon class="cls-3" points="243.99 160.85 267.53 201.53 241.56 216.55 218.03 175.87 221.99 152.78 243.99 160.85"/></g></g><g id="secondCircle"><circle id="secondCircle-2" data-name="secondCircle" cx="316.39" cy="315.39" r="121.5"/></g><g id="innerCircle"><circle id="innerCircle-2" data-name="innerCircle" class="cls-4" cx="315.89" cy="315.89" r="89"/></g></svg>