<svg xmlns="http://www.w3.org/2000/svg" xmlns:xlink="http://www.w3.org/1999/xlink" viewBox="0 0 339.63 567.82"><defs><style>.cls-1{fill:#dabf98;}.cls-2{fill:url(#linear-gradient);}.cls-3{fill:url(#linear-gradient-2);}.cls-4{fill:url(#linear-gradient-3);}.cls-5{fill:url(#linear-gradient-4);}.cls-6{fill:url(#linear-gradient-5);}.cls-7{fill:url(#linear-gradient-6);}.cls-8{fill:url(#linear-gradient-7);}.cls-9{fill:url(#linear-gradient-8);}.cls-10{fill:url(#linear-gradient-9);}.cls-11{fill:url(#linear-gradient-10);}.cls-12{fill:url(#linear-gradient-11);}.cls-13{fill:url(#linear-gradient-12);}.cls-14{fill:url(#linear-gradient-13);}.cls-15{fill:url(#linear-gradient-14);}.cls-16{fill:url(#linear-gradient-15);}.cls-17{fill:url(#linear-gradient-16);}.cls-18{fill:url(#linear-gradient-17);}.cls-19{fill:url(#linear-gradient-18);}.cls-20{fill:url(#linear-gradient-19);}.cls-21{fill:url(#linear-gradient-20);}.cls-22{fill:url(#linear-gradient-21);}.cls-23{fill:url(#linear-gradient-22);}.cls-24{fill:url(#linear-gradient-23);}.cls-25{fill:url(#linear-gradient-24);}.cls-26{fill:url(#linear-gradient-25);}.cls-27{fill:url(#linear-gradient-26);}.cls-28{fill:url(#linear-gradient-27);}.cls-29{fill:url(#linear-gradient-28);}</style><linearGradient id="linear-gradient" x1="300.6" y1="44.48" x2="335.09" y2="52.57" gradientUnits="userSpaceOnUse"><stop offset="0.1" stop-color="#fff"/><stop offset="0.32" stop-color="#d7d6d6"/><stop offset="0.55" stop-color="#a9a8a8"/><stop offset="0.6" stop-color="#9f9e9e"/><stop offset="0.69" stop-color="#848383"/><stop offset="0.81" stop-color="#585757"/><stop offset="0.94" stop-color="#1b1b1b"/><stop offset="1"/></linearGradient><linearGradient id="linear-gradient-2" x1="283.6" y1="78.48" x2="318.09" y2="86.57" xlink:href="#linear-gradient"/><linearGradient id="linear-gradient-3" x1="271.6" y1="116.48" x2="306.09" y2="124.57" xlink:href="#linear-gradient"/><linearGradient id="linear-gradient-4" x1="263.6" y1="154.48" x2="298.09" y2="162.57" xlink:href="#linear-gradient"/><linearGradient id="linear-gradient-5" x1="257.6" y1="192.48" x2="292.09" y2="200.57" xlink:href="#linear-gradient"/><linearGradient id="linear-gradient-6" x1="240.6" y1="230.48" x2="275.09" y2="238.57" xlink:href="#linear-gradient"/><linearGradient id="linear-gradient-7" x1="217.6" y1="268.48" x2="252.09" y2="276.57" xlink:href="#linear-gradient"/><linearGradient id="linear-gradient-8" x1="193.6" y1="306.48" x2="228.09" y2="314.57" xlink:href="#linear-gradient"/><linearGradient id="linear-gradient-9" x1="176.6" y1="344.48" x2="211.09" y2="352.57" xlink:href="#linear-gradient"/><linearGradient id="linear-gradient-10" x1="171.6" y1="385.48" x2="206.09" y2="393.57" xlink:href="#linear-gradient"/><linearGradient id="linear-gradient-11" x1="1543.87" y1="431.69" x2="1578.36" y2="439.77" gradientTransform="translate(-1334.09 -109.26) rotate(3.98)" xlink:href="#linear-gradient"/><linearGradient id="linear-gradient-12" x1="1522.87" y1="472.69" x2="1557.36" y2="480.77" gradientTransform="translate(-1334.09 -109.26) rotate(3.98)" xlink:href="#linear-gradient"/><linearGradient id="linear-gradient-13" x1="1493.87" y1="513.69" x2="1528.36" y2="521.77" gradientTransform="translate(-1334.09 -109.26) rotate(3.98)" xlink:href="#linear-gradient"/><linearGradient id="linear-gradient-14" x1="1463.07" y1="554.49" x2="1497.56" y2="562.57" gradientTransform="translate(-1334.09 -109.26) rotate(3.98)" xlink:href="#linear-gradient"/><linearGradient id="linear-gradient-15" x1="1415.25" y1="558.82" x2="1449.74" y2="566.9" gradientTransform="translate(-1142.78 -413.41) rotate(17.42)" xlink:href="#linear-gradient"/><linearGradient id="linear-gradient-16" x1="1388.36" y1="532.62" x2="1422.85" y2="540.7" gradientTransform="matrix(0.98, 0.2, -0.2, 0.98, -1235.85, -288)" xlink:href="#linear-gradient"/><linearGradient id="linear-gradient-17" x1="1372.24" y1="498.27" x2="1406.73" y2="506.36" gradientTransform="matrix(0.98, 0.2, -0.2, 0.98, -1235.85, -288)" xlink:href="#linear-gradient"/><linearGradient id="linear-gradient-18" x1="1361.71" y1="457.56" x2="1396.2" y2="465.64" gradientTransform="matrix(0.98, 0.2, -0.2, 0.98, -1235.85, -288)" xlink:href="#linear-gradient"/><linearGradient id="linear-gradient-19" x1="1361.95" y1="414.6" x2="1396.44" y2="422.68" gradientTransform="matrix(0.98, 0.2, -0.2, 0.98, -1235.85, -288)" xlink:href="#linear-gradient"/><linearGradient id="linear-gradient-20" x1="1374.95" y1="369.12" x2="1409.44" y2="377.2" gradientTransform="translate(-1188.91 -377) rotate(15.78)" xlink:href="#linear-gradient"/><linearGradient id="linear-gradient-21" x1="1386.94" y1="323.71" x2="1421.43" y2="331.79" gradientTransform="translate(-1188.91 -377) rotate(15.78)" xlink:href="#linear-gradient"/><linearGradient id="linear-gradient-22" x1="1398.88" y1="279" x2="1433.37" y2="287.09" gradientTransform="translate(-1188.91 -377) rotate(15.78)" xlink:href="#linear-gradient"/><linearGradient id="linear-gradient-23" x1="1418.51" y1="238.12" x2="1453" y2="246.2" gradientTransform="translate(-1188.91 -377) rotate(15.78)" xlink:href="#linear-gradient"/><linearGradient id="linear-gradient-24" x1="1431.4" y1="199.13" x2="1465.89" y2="207.22" gradientTransform="translate(-1188.91 -377) rotate(15.78)" xlink:href="#linear-gradient"/><linearGradient id="linear-gradient-25" x1="1431.24" y1="161.76" x2="1465.73" y2="169.84" gradientTransform="translate(-1188.91 -377) rotate(15.78)" xlink:href="#linear-gradient"/><linearGradient id="linear-gradient-26" x1="1419.69" y1="117.21" x2="1454.18" y2="125.29" gradientTransform="translate(-1188.91 -377) rotate(15.78)" xlink:href="#linear-gradient"/><linearGradient id="linear-gradient-27" x1="1400.42" y1="82.12" x2="1434.91" y2="90.2" gradientTransform="translate(-1188.91 -377) rotate(15.78)" xlink:href="#linear-gradient"/><linearGradient id="linear-gradient-28" x1="1388.18" y1="38.8" x2="1422.67" y2="46.89" gradientTransform="translate(-1188.91 -377) rotate(15.78)" xlink:href="#linear-gradient"/></defs><title>necklace</title><g id="necklace"><path class="cls-1" d="M1709.44,16.44a314.2,314.2,0,0,0-50.73,96.81c-6.27,19.91-7.93,40.75-11.77,61.17A182.21,182.21,0,0,1,1626.59,230c-17.75,31.84-42.07,59.93-56.74,93.5a135.53,135.53,0,0,0-11.62,53.24c-.15,11.78.62,23.59-.41,35.35a119.48,119.48,0,0,1-7.1,30.8c-7.11,19.26-18.42,36.71-30.7,53.05-12,16-24.64,33-39.56,46.45-7.44,6.7-16.1,12.34-26,14.34-10.23,2-20.74-.32-29.71-5.45-19-10.86-28.38-31.31-31.07-52.29-2.75-21.41-.06-43.71,4.44-64.7a307.64,307.64,0,0,1,19.67-59.62c17.07-38.63,40.56-74.13,66-107.69,23.85-31.41,50.83-64,52.52-105.24,1.75-43.06-20.39-85.54-8-128.43A65.86,65.86,0,0,1,1542,7.81c1.27-1.44-.84-3.57-2.12-2.12-27.64,31.38-17.45,76-10.74,113,4.33,23.91,6.68,47.95-1.09,71.43-6.72,20.34-19,38.35-31.71,55.39-25.89,34.73-51.89,68.94-71.69,107.67-19.07,37.29-32.74,78-34.82,120.07-1,20.45,1,42.41,12.19,60.14,9.24,14.71,25.32,26.31,43.07,27,18.84.79,34.22-11.61,46.25-24.76A475.52,475.52,0,0,0,1529.5,488c11.66-16.63,21.86-34.65,27.37-54.32,6.27-22.38,3-44.9,4.81-67.7,3.07-38.62,26.53-71.05,47.35-102.23,10.44-15.62,20.72-31.48,28.49-48.64,9-19.86,12.69-40.82,15.94-62.23,3-19.75,7.26-38.47,14.73-57a357.08,357.08,0,0,1,27.75-54.58,257,257,0,0,1,15.62-22.69c1.17-1.51-.94-3.64-2.12-2.12Z" transform="translate(-1372.28 -5.21)"/></g><g id="pearls"><circle class="cls-2" cx="314.72" cy="47.79" r="17"/><circle class="cls-3" cx="297.72" cy="81.79" r="17"/><circle class="cls-4" cx="285.72" cy="119.79" r="17"/><circle class="cls-5" cx="277.72" cy="157.79" r="17"/><circle class="cls-6" cx="271.72" cy="195.79" r="17"/><circle class="cls-7" cx="254.72" cy="233.79" r="17"/><circle class="cls-8" cx="231.72" cy="271.79" r="17"/><circle class="cls-9" cx="207.72" cy="309.79" r="17"/><circle class="cls-10" cx="190.72" cy="347.79" r="17"/><circle class="cls-11" cx="185.72" cy="388.79" r="17"/><circle class="cls-12" cx="189.93" cy="432.93" r="17"/><circle class="cls-13" cx="166.13" cy="472.37" r="17"/><circle class="cls-14" cx="134.35" cy="511.26" r="17"/><circle class="cls-15" cx="100.78" cy="549.82" r="17"/><circle class="cls-16" cx="52.78" cy="550.82" r="17"/><circle class="cls-17" cx="27.78" cy="522.82" r="17"/><circle class="cls-18" cx="19.01" cy="485.9" r="17"/><circle class="cls-19" cx="17" cy="443.89" r="17"/><circle class="cls-20" cx="26" cy="401.88" r="17"/><circle class="cls-21" cx="46.56" cy="359.09" r="17"/><circle class="cls-22" cx="70.45" cy="318.65" r="17"/><circle class="cls-23" cx="94.09" cy="278.88" r="17"/><circle class="cls-24" cx="124.1" cy="244.87" r="17"/><circle class="cls-25" cx="147.11" cy="210.86" r="17"/><circle class="cls-26" cx="157.11" cy="174.85" r="17"/><circle class="cls-27" cx="158.12" cy="128.84" r="17"/><circle class="cls-28" cx="149.12" cy="89.83" r="17"/><circle class="cls-29" cx="149.11" cy="44.82" r="17"/></g></svg>