<?xml version="1.0" encoding="utf-8"?>
<!-- Generator: Adobe Illustrator 23.0.1, SVG Export Plug-In . SVG Version: 6.00 Build 0)  -->
<svg version="1.1" xmlns="http://www.w3.org/2000/svg" xmlns:xlink="http://www.w3.org/1999/xlink" x="0px" y="0px"
	 viewBox="0 0 1920 1080" style="enable-background:new 0 0 1920 1080;" xml:space="preserve">
<style type="text/css">
	.st0{fill:red;}
</style>
<g id="geel">
	<g>
		<path class="st0" d="M456.5,841c-72.25,0-140.18-28.14-191.27-79.23S186,642.75,186,570.5s28.14-140.18,79.23-191.27
			S384.25,300,456.5,300s140.18,28.14,191.27,79.23S727,498.25,727,570.5s-28.14,140.18-79.23,191.27S528.75,841,456.5,841z"/>
		<path d="M456.5,306c35.71,0,70.35,6.99,102.95,20.78c31.5,13.32,59.78,32.39,84.08,56.69s43.37,52.58,56.69,84.08
			C714.01,500.15,721,534.79,721,570.5s-6.99,70.35-20.78,102.95c-13.32,31.5-32.39,59.78-56.69,84.08s-52.58,43.37-84.08,56.69
			C526.85,828.01,492.21,835,456.5,835s-70.35-6.99-102.95-20.78c-31.5-13.32-59.78-32.39-84.08-56.69s-43.37-52.58-56.69-84.08
			C198.99,640.85,192,606.21,192,570.5s6.99-70.35,20.78-102.95c13.32-31.5,32.39-59.78,56.69-84.08s52.58-43.37,84.08-56.69
			C386.15,312.99,420.79,306,456.5,306 M456.5,294C303.79,294,180,417.79,180,570.5S303.79,847,456.5,847S733,723.21,733,570.5
			S609.21,294,456.5,294L456.5,294z"/>
	</g>
</g>
<g id="mond">
	<g>
		<g>
			<path d="M298.3,611.89c-7.21,30.85,17.27,58.14,39.26,76.29c21.5,17.74,46.62,30.81,73.41,38.47
				c51.33,14.67,116.06,11.15,158.17-24.95c11.24-9.64,20.25-22.18,24.39-36.5c3.69-12.78,0.22-39.64,17.74-43.02
				c7.57-1.46,4.37-13.03-3.19-11.57c-13.94,2.69-20.7,16.66-22.64,29.44c-1.11,7.34-1.41,14.79-3.48,21.96
				c-1.67,5.8-4.32,11.18-7.67,16.2c-14.22,21.29-39.68,33.27-63.8,39.23c-51.13,12.64-107.01,1.7-150.61-27.48
				c-12.37-8.28-23.9-18.13-33.67-29.39c-10.68-12.29-20.27-28.66-16.34-45.49C311.63,607.56,300.06,604.36,298.3,611.89
				L298.3,611.89z"/>
		</g>
	</g>
</g>
<g id="linkeroog">
	<g>
		<g>
			<path d="M372.92,401.9c-0.82,1.04-1.63,2.08-2.45,3.12c-2.24,2.85-2.56,7.46,1.21,9.42c9.41,4.89,20.71,1.92,26.56-6.89
				c2.24-3.37-0.1-7.69-3.59-8.81c-5.33-1.71-10.66-1.84-16.13-0.8c-3.05,0.58-5.18,4.5-4.19,7.38c1.37,4,4.68,6.67,9.01,6.74
				c4.25,0.08,8.48-3.13,8.44-7.57c-0.07-8.92-11.29-12.32-17.35-6.85c-5.75,5.18,2.76,13.64,8.49,8.49
				c-1.32,1.19-3.03,0.68-3.11-1.26c0.59-1.41,1.17-2.83,1.76-4.24c1.75-1.1,3.19-0.6,4.34,1.5c-1.4,2.46-2.79,4.92-4.19,7.38
				c3.37-0.64,6.51-0.24,9.75,0.8c-1.2-2.94-2.39-5.88-3.59-8.81c-2.13,3.21-6.75,4.35-10.14,2.59c0.4,3.14,0.81,6.28,1.21,9.42
				c0.82-1.04,1.63-2.08,2.45-3.12c2-2.55,2.48-6,0-8.49C379.32,399.82,374.93,399.34,372.92,401.9L372.92,401.9z"/>
		</g>
	</g>
</g>
<g id="rechteroog">
	<g>
		<g>
			<path d="M577.31,405.64c-5.38,3.36-4.37,11.7,1.88,13.49c6.94,1.99,10.56-5.5,9.37-11.17c-0.59-2.81-3.25-4.1-5.79-4.4
				c-5.92-0.72-13.09-2.78-18.99-1.28c-5.58,1.41-9.54,7.44-7.38,13.01c2.13,5.52,8.7,7.17,13.92,5.31c5.35-1.9,8.68-6.92,8.81-12.5
				c-4,0-8,0-12,0c0.16,2.74,0.07,5.34-0.5,8.02c1.93-1.47,3.86-2.94,5.79-4.4c-2.67,0.02-5.34,0.03-8.01,0.05
				c-7.72,0.05-7.74,12.05,0,12c2.67-0.02,5.34-0.03,8.01-0.05c2.5-0.01,5.25-1.84,5.79-4.4c0.78-3.72,1.15-7.42,0.93-11.21
				c-0.46-7.66-11.83-7.78-12,0c-0.02,0.84-0.88,0.78-1,1.28c0.01-0.06,0.86,4.47,0.85,4.46c0.4,0.34,2.26,0.08,2.82,0.14
				c4.33,0.43,8.66,1.05,12.98,1.57c-1.93-1.47-3.86-2.94-5.79-4.4c0.48-0.99,0.97-1.98,1.45-2.97c1.01-0.27,2.02-0.55,3.03-0.82
				c-0.23,0-0.46-0.01-0.68-0.01c1.01,0.27,2.02,0.55,3.03,0.82c0.54,0.65,1.09,1.3,1.63,1.95c0,1.06,0,2.13,0,3.19
				c0.05-0.19,0.1-0.38,0.15-0.57c-0.92,1.2-1.84,2.39-2.76,3.59c0.17-0.11,0.35-0.22,0.52-0.33
				C589.91,411.93,583.89,401.54,577.31,405.64L577.31,405.64z"/>
		</g>
	</g>
</g>
</svg>
