<svg xmlns="http://www.w3.org/2000/svg" xmlns:xlink="http://www.w3.org/1999/xlink" viewBox="0 0 372.79 600.96"><defs><style>.cls-1{fill:#dabf98;}.cls-2{fill:url(#linear-gradient);}.cls-3{fill:url(#linear-gradient-2);}.cls-4{fill:url(#linear-gradient-3);}.cls-5{fill:url(#linear-gradient-4);}.cls-6{fill:url(#linear-gradient-5);}.cls-7{fill:url(#linear-gradient-6);}.cls-8{fill:url(#linear-gradient-7);}.cls-9{fill:url(#linear-gradient-8);}.cls-10{fill:url(#linear-gradient-9);}.cls-11{fill:url(#linear-gradient-10);}.cls-12{fill:url(#linear-gradient-11);}.cls-13{fill:url(#linear-gradient-12);}.cls-14{fill:url(#linear-gradient-13);}.cls-15{fill:url(#linear-gradient-14);}.cls-16{fill:url(#linear-gradient-15);}.cls-17{fill:url(#linear-gradient-16);}.cls-18{fill:url(#linear-gradient-17);}.cls-19{fill:url(#linear-gradient-18);}.cls-20{fill:url(#linear-gradient-19);}.cls-21{fill:url(#linear-gradient-20);}.cls-22{fill:url(#linear-gradient-21);}.cls-23{fill:url(#linear-gradient-22);}.cls-24{fill:url(#linear-gradient-23);}.cls-25{fill:url(#linear-gradient-24);}.cls-26{fill:url(#linear-gradient-25);}.cls-27{fill:url(#linear-gradient-26);}.cls-28{fill:url(#linear-gradient-27);}.cls-29{fill:url(#linear-gradient-28);}</style><linearGradient id="linear-gradient" x1="300.6" y1="77.62" x2="335.09" y2="85.7" gradientUnits="userSpaceOnUse"><stop offset="0.1" stop-color="#fff"/><stop offset="0.32" stop-color="#d7d6d6"/><stop offset="0.55" stop-color="#a9a8a8"/><stop offset="0.6" stop-color="#9f9e9e"/><stop offset="0.69" stop-color="#848383"/><stop offset="0.81" stop-color="#585757"/><stop offset="0.94" stop-color="#1b1b1b"/><stop offset="1"/></linearGradient><linearGradient id="linear-gradient-2" x1="283.6" y1="111.62" x2="318.09" y2="119.7" xlink:href="#linear-gradient"/><linearGradient id="linear-gradient-3" x1="271.6" y1="149.62" x2="306.09" y2="157.7" xlink:href="#linear-gradient"/><linearGradient id="linear-gradient-4" x1="263.6" y1="187.62" x2="298.09" y2="195.7" xlink:href="#linear-gradient"/><linearGradient id="linear-gradient-5" x1="257.6" y1="225.62" x2="292.09" y2="233.7" xlink:href="#linear-gradient"/><linearGradient id="linear-gradient-6" x1="240.6" y1="263.62" x2="275.09" y2="271.7" xlink:href="#linear-gradient"/><linearGradient id="linear-gradient-7" x1="217.6" y1="301.62" x2="252.09" y2="309.7" xlink:href="#linear-gradient"/><linearGradient id="linear-gradient-8" x1="193.6" y1="339.62" x2="228.09" y2="347.7" xlink:href="#linear-gradient"/><linearGradient id="linear-gradient-9" x1="176.6" y1="377.62" x2="211.09" y2="385.7" xlink:href="#linear-gradient"/><linearGradient id="linear-gradient-10" x1="171.6" y1="418.62" x2="206.09" y2="426.7" xlink:href="#linear-gradient"/><linearGradient id="linear-gradient-11" x1="1543.87" y1="431.69" x2="1578.36" y2="439.77" gradientTransform="translate(-1334.09 -76.12) rotate(3.98)" xlink:href="#linear-gradient"/><linearGradient id="linear-gradient-12" x1="1522.87" y1="472.69" x2="1557.36" y2="480.77" gradientTransform="translate(-1334.09 -76.12) rotate(3.98)" xlink:href="#linear-gradient"/><linearGradient id="linear-gradient-13" x1="1493.87" y1="513.69" x2="1528.36" y2="521.77" gradientTransform="translate(-1334.09 -76.12) rotate(3.98)" xlink:href="#linear-gradient"/><linearGradient id="linear-gradient-14" x1="1463.07" y1="554.49" x2="1497.56" y2="562.57" gradientTransform="translate(-1334.09 -76.12) rotate(3.98)" xlink:href="#linear-gradient"/><linearGradient id="linear-gradient-15" x1="1415.25" y1="558.82" x2="1449.74" y2="566.9" gradientTransform="translate(-1142.78 -380.28) rotate(17.42)" xlink:href="#linear-gradient"/><linearGradient id="linear-gradient-16" x1="1388.36" y1="532.62" x2="1422.85" y2="540.7" gradientTransform="matrix(0.98, 0.2, -0.2, 0.98, -1235.85, -254.87)" xlink:href="#linear-gradient"/><linearGradient id="linear-gradient-17" x1="1372.24" y1="498.27" x2="1406.73" y2="506.36" gradientTransform="matrix(0.98, 0.2, -0.2, 0.98, -1235.85, -254.87)" xlink:href="#linear-gradient"/><linearGradient id="linear-gradient-18" x1="1361.71" y1="457.56" x2="1396.2" y2="465.64" gradientTransform="matrix(0.98, 0.2, -0.2, 0.98, -1235.85, -254.87)" xlink:href="#linear-gradient"/><linearGradient id="linear-gradient-19" x1="1361.95" y1="414.6" x2="1396.44" y2="422.68" gradientTransform="matrix(0.98, 0.2, -0.2, 0.98, -1235.85, -254.87)" xlink:href="#linear-gradient"/><linearGradient id="linear-gradient-20" x1="1374.95" y1="369.12" x2="1409.44" y2="377.2" gradientTransform="translate(-1188.91 -343.87) rotate(15.78)" xlink:href="#linear-gradient"/><linearGradient id="linear-gradient-21" x1="1386.94" y1="323.71" x2="1421.43" y2="331.79" gradientTransform="translate(-1188.91 -343.87) rotate(15.78)" xlink:href="#linear-gradient"/><linearGradient id="linear-gradient-22" x1="1398.88" y1="279" x2="1433.37" y2="287.09" gradientTransform="translate(-1188.91 -343.87) rotate(15.78)" xlink:href="#linear-gradient"/><linearGradient id="linear-gradient-23" x1="1418.51" y1="238.12" x2="1453" y2="246.2" gradientTransform="translate(-1188.91 -343.87) rotate(15.78)" xlink:href="#linear-gradient"/><linearGradient id="linear-gradient-24" x1="1431.4" y1="199.13" x2="1465.89" y2="207.22" gradientTransform="translate(-1188.91 -343.87) rotate(15.78)" xlink:href="#linear-gradient"/><linearGradient id="linear-gradient-25" x1="1431.24" y1="161.76" x2="1465.73" y2="169.84" gradientTransform="translate(-1188.91 -343.87) rotate(15.78)" xlink:href="#linear-gradient"/><linearGradient id="linear-gradient-26" x1="1419.69" y1="117.21" x2="1454.18" y2="125.29" gradientTransform="translate(-1188.91 -343.87) rotate(15.78)" xlink:href="#linear-gradient"/><linearGradient id="linear-gradient-27" x1="1400.42" y1="82.12" x2="1434.91" y2="90.2" gradientTransform="translate(-1188.91 -343.87) rotate(15.78)" xlink:href="#linear-gradient"/><linearGradient id="linear-gradient-28" x1="1388.18" y1="38.8" x2="1422.67" y2="46.89" gradientTransform="translate(-1188.91 -343.87) rotate(15.78)" xlink:href="#linear-gradient"/></defs><title>necklace</title><g id="necklace"><path class="cls-1" d="M1742.44-27.56c-11.09,9.19-19.92,21.14-28,32.94a469.5,469.5,0,0,0-28.14,47.17c-15.23,28.88-29.16,58.71-34.4,91.13-4,24.67-7.17,49-17.86,71.91-8.83,18.89-20.57,36.2-32.15,53.47-11.45,17.09-23,34.3-31.43,53.13-9,20.15-12.4,40.42-12.19,62.42.14,13.55.44,27-2.33,40.37A137,137,0,0,1,1544,458.21c-10.62,21.25-25.38,40.13-40.4,58.41-13.67,16.62-29.42,38.09-52.56,40.65-24.73,2.74-45.42-17.48-53.07-39.3-8.27-23.62-6-50.38-1.71-74.58a300.59,300.59,0,0,1,21.45-68.71c19.42-43.95,47.22-82.88,76.17-120.94,13.75-18.07,27.34-36.79,35.42-58.19,8.86-23.45,7.85-47.63,3.72-72-3.54-20.81-8.69-40.95-6.92-62.2,1.59-19.06,6.54-38.46,15.93-55.2a78,78,0,0,1,17.49-21.62c1.48-1.25-.65-3.36-2.12-2.12C1543.05-5.41,1534.3,12.11,1529,29.91c-5,16.74-7.44,34.81-6,52.27,2.1,25.5,10.61,50,10.4,75.79s-10.79,49.25-24.92,70.51c-13.53,20.36-29.35,39.1-43.46,59a545.47,545.47,0,0,0-38.78,62.66c-21.87,41.94-38.36,89.93-36.5,137.83.88,22.51,7.55,45.79,25.65,60.49,15.93,12.93,36.74,15.78,54.72,5.32,9.44-5.5,17.24-13.45,24.37-21.62,7.51-8.59,14.71-17.49,21.76-26.46,14.44-18.38,28-37.86,36.51-59.77a124.25,124.25,0,0,0,7.88-31.92c1.52-14.35.12-28.8.76-43.19,1-22.38,8.69-43.24,19.42-62.7,20.49-37.16,50.32-69.54,63.5-110.51,7.56-23.5,7.93-48.4,14.14-72.17,3.75-14.39,9.72-28.27,15.85-41.78,15.11-33.25,32.93-67.15,56.56-95.21a110,110,0,0,1,13.7-13.93c1.49-1.23-.64-3.34-2.12-2.12Z" transform="translate(-1372.28 27.93)"/></g><g id="pearls"><circle class="cls-2" cx="314.72" cy="80.93" r="17"/><circle class="cls-3" cx="297.72" cy="114.93" r="17"/><circle class="cls-4" cx="285.72" cy="152.93" r="17"/><circle class="cls-5" cx="277.72" cy="190.93" r="17"/><circle class="cls-6" cx="271.72" cy="228.93" r="17"/><circle class="cls-7" cx="254.72" cy="266.93" r="17"/><circle class="cls-8" cx="231.72" cy="304.93" r="17"/><circle class="cls-9" cx="207.72" cy="342.93" r="17"/><circle class="cls-10" cx="190.72" cy="380.93" r="17"/><circle class="cls-11" cx="185.72" cy="421.93" r="17"/><circle class="cls-12" cx="189.93" cy="466.07" r="17"/><circle class="cls-13" cx="166.13" cy="505.51" r="17"/><circle class="cls-14" cx="134.35" cy="544.39" r="17"/><circle class="cls-15" cx="100.78" cy="582.95" r="17"/><circle class="cls-16" cx="52.78" cy="583.95" r="17"/><circle class="cls-17" cx="27.78" cy="555.95" r="17"/><circle class="cls-18" cx="19.01" cy="519.04" r="17"/><circle class="cls-19" cx="17" cy="477.03" r="17"/><circle class="cls-20" cx="26" cy="435.02" r="17"/><circle class="cls-21" cx="46.56" cy="392.23" r="17"/><circle class="cls-22" cx="70.45" cy="351.79" r="17"/><circle class="cls-23" cx="94.09" cy="312.01" r="17"/><circle class="cls-24" cx="124.1" cy="278" r="17"/><circle class="cls-25" cx="147.11" cy="243.99" r="17"/><circle class="cls-26" cx="157.11" cy="207.98" r="17"/><circle class="cls-27" cx="158.12" cy="161.98" r="17"/><circle class="cls-28" cx="149.12" cy="122.96" r="17"/><circle class="cls-29" cx="149.11" cy="77.95" r="17"/></g></svg>