<svg xmlns="http://www.w3.org/2000/svg" viewBox="0 0 190 190"><defs><style>.cls-1,.cls-5{fill:#dabf98;}.cls-2,.cls-3{fill:#fff;}.cls-2,.cls-5{stroke:#000;stroke-miterlimit:10;stroke-width:5px;}.cls-4{fill:#606060;}</style></defs><title>circleSmaller</title><g id="stars"><polygon id="stars-2" data-name="stars" class="cls-1" points="87.11 47.72 94.56 0 101.86 47.74 123.69 4.66 115.88 52.32 149.96 18.1 127.8 61.01 170.79 38.99 136.46 72.96 184.14 65.3 140.99 87 188.71 94.45 140.97 101.75 184.05 123.58 136.39 115.77 170.62 149.85 127.7 127.69 149.72 170.68 115.75 136.34 123.41 184.03 101.72 140.88 94.27 188.6 86.96 140.86 65.13 183.94 72.94 136.28 38.87 170.5 61.02 127.59 18.04 149.61 52.37 115.64 4.68 123.3 47.83 101.6 0.11 94.15 47.85 86.85 4.77 65.02 52.43 72.83 18.21 38.75 61.12 60.91 39.1 17.92 73.07 52.26 65.41 4.57 87.11 47.72"/></g><g id="outerCircle"><circle id="outerCircle-2" data-name="outerCircle" class="cls-2" cx="94.88" cy="93.84" r="66.34"/></g><g id="thirdCircle"><circle id="thirdCircle_c" class="cls-1" cx="94.56" cy="94.15" r="56.87"/><g id="ornaments"><polygon class="cls-3" points="98.89 43.85 98.89 57.88 89.93 57.88 89.93 43.85 94.41 38.48 98.89 43.85"/><polygon class="cls-3" points="145.16 98.78 131.13 98.78 131.13 89.82 145.16 89.82 150.53 94.3 145.16 98.78"/><polygon class="cls-3" points="90.23 144.75 90.23 130.72 99.19 130.72 99.19 144.75 94.71 150.13 90.23 144.75"/><polygon class="cls-3" points="43.36 89.82 57.4 89.82 57.4 98.78 43.36 98.78 37.99 94.3 43.36 89.82"/><polygon class="cls-3" points="111.57 46.58 108.09 60.17 99.41 57.95 102.9 44.35 108.57 40.26 111.57 46.58"/><polygon class="cls-3" points="142.75 111.28 129.16 107.79 131.39 99.12 144.98 102.6 149.07 108.28 142.75 111.28"/><polygon class="cls-3" points="78.13 142.17 81.61 128.58 90.29 130.8 86.8 144.39 81.13 148.49 78.13 142.17"/><polygon class="cls-3" points="46.37 77.32 59.96 80.81 57.74 89.48 44.15 86 40.05 80.33 46.37 77.32"/><polygon class="cls-3" points="123.04 52.19 116.34 64.52 108.47 60.24 115.17 47.91 121.67 45.33 123.04 52.19"/><polygon class="cls-3" points="137.46 122.55 125.13 115.85 129.41 107.98 141.73 114.68 144.32 121.18 137.46 122.55"/><polygon class="cls-3" points="67.24 136.7 73.94 124.38 81.81 128.65 75.11 140.98 68.61 143.56 67.24 136.7"/><polygon class="cls-3" points="52.3 66.06 64.63 72.76 60.35 80.63 48.02 73.93 45.44 67.43 52.3 66.06"/><polygon class="cls-3" points="133.21 61.9 123.29 71.82 116.95 65.49 126.88 55.57 133.84 54.93 133.21 61.9"/><polygon class="cls-3" points="127.09 133.46 117.17 123.54 123.5 117.2 133.42 127.13 134.05 134.09 127.09 133.46"/><polygon class="cls-3" points="55.74 127.13 65.66 117.2 71.99 123.54 62.07 133.46 55.11 134.09 55.74 127.13"/><polygon class="cls-3" points="61.44 55.14 71.36 65.06 65.03 71.4 55.11 61.48 54.47 54.51 61.44 55.14"/><polygon class="cls-3" points="144.31 86.42 130.71 89.85 128.51 81.17 142.11 77.73 148.42 80.76 144.31 86.42"/><polygon class="cls-3" points="102.4 144.74 98.96 131.13 107.64 128.94 111.08 142.54 108.05 148.85 102.4 144.74"/><polygon class="cls-3" points="44.36 102.75 57.97 99.31 60.16 108 46.56 111.44 40.25 108.41 44.36 102.75"/><polygon class="cls-3" points="86.13 43.85 89.57 57.45 80.89 59.65 77.45 46.05 80.47 39.74 86.13 43.85"/><polygon class="cls-3" points="140.55 73.05 128.41 80.08 123.92 72.33 136.06 65.3 142.96 66.49 140.55 73.05"/><polygon class="cls-3" points="116.18 140.61 109.15 128.47 116.9 123.98 123.93 136.13 122.75 143.02 116.18 140.61"/><polygon class="cls-3" points="48.88 116.09 61.02 109.07 65.51 116.82 53.36 123.84 46.47 122.66 48.88 116.09"/><polygon class="cls-3" points="72.95 48.02 79.98 60.16 72.22 64.65 65.2 52.5 66.38 45.61 72.95 48.02"/></g></g><g id="secondCircle"><circle id="secondCircle-2" data-name="secondCircle" class="cls-4" cx="94.5" cy="94.21" r="37.21"/></g><g id="innerCircle"><circle id="innerCircle-2" data-name="innerCircle" class="cls-5" cx="94.41" cy="94.3" r="26.57"/></g></svg>